<svg width="542" height="300" viewBox="0 0 542 300" fill="none" xmlns="http://www.w3.org/2000/svg">
<mask id="mask0_241_580" style="mask-type:luminance" maskUnits="userSpaceOnUse" x="0" y="0" width="542" height="300">
<path d="M0 0H542V300H0V0Z" fill="white"/>
</mask>
<g mask="url(#mask0_241_580)">
<path d="M90.0666 226.866H41.2246V277.917H90.0666V226.866Z" fill="url(#paint0_radial_241_580)" fill-opacity="0.06"/>
<path d="M187.356 73.0635H138.514V124.114H187.356V73.0635Z" fill="url(#paint1_radial_241_580)" fill-opacity="0.06"/>
<path d="M431.417 176.027H382.575V227.077H431.417V176.027Z" fill="url(#paint2_radial_241_580)" fill-opacity="0.06"/>
<path d="M431.417 22.9033H382.575V73.9536H431.417V22.9033Z" fill="url(#paint3_radial_241_580)" fill-opacity="0.06"/>
<path d="M-56.7059 -232.74H-105.548V-181.69M-56.7059 -232.74V-181.69M-56.7059 -232.74H-7.86386M-105.548 -181.69H-56.7059M-105.548 -181.69V-130.64M-56.7059 -181.69H-7.86386M-56.7059 -181.69V-130.64M-7.86386 -232.74V-181.69M-7.86386 -232.74H40.9781M-7.86386 -181.69H40.9781M-7.86386 -181.69V-130.64M-56.7059 -130.64H-105.548M-56.7059 -130.64H-7.86386M-56.7059 -130.64V-79.59M-105.548 -130.64V-79.59M40.9781 -232.74V-181.69M40.9781 -232.74H89.8201M40.9781 -181.69H89.8201M40.9781 -181.69V-130.64M-7.86386 -130.64H40.9781M-7.86386 -130.64V-79.59M89.8201 -232.74V-181.69M89.8201 -232.74H138.662M89.8201 -181.69H138.662M89.8201 -181.69V-130.64M40.9781 -130.64H89.8201M40.9781 -130.64V-79.59M138.662 -232.74V-181.69M138.662 -232.74H187.504M138.662 -181.69H187.504M138.662 -181.69V-130.64M89.8201 -130.64H138.662M89.8201 -130.64V-79.59M187.504 -232.74V-181.69M187.504 -232.74H236.346M187.504 -181.69H236.346M187.504 -181.69V-130.64M138.662 -130.64H187.504M138.662 -130.64V-79.59M236.346 -232.74V-181.69M236.346 -232.74H285.188M236.346 -181.69H285.188M236.346 -181.69V-130.64M187.504 -130.64H236.346M187.504 -130.64V-79.59M285.188 -232.74V-181.69M285.188 -232.74H334.03M285.188 -181.69H334.03M285.188 -181.69V-130.64M236.346 -130.64H285.188M236.346 -130.64V-79.59M334.03 -232.74V-181.69M334.03 -232.74H382.872M334.03 -181.69H382.872M334.03 -181.69V-130.64M285.188 -130.64H334.03M285.188 -130.64V-79.59M382.872 -232.74V-181.69M382.872 -232.74H431.714M382.872 -181.69H431.714M382.872 -181.69V-130.64M334.03 -130.64H382.872M334.03 -130.64V-79.59M431.714 -232.74V-181.69M431.714 -232.74H480.556M431.714 -181.69H480.556M431.714 -181.69V-130.64M382.872 -130.64H431.714M382.872 -130.64V-79.59M480.556 -232.74V-181.69M480.556 -232.74H529.398M480.556 -181.69H529.398M480.556 -181.69V-130.64M431.714 -130.64H480.556M431.714 -130.64V-79.59M529.398 -232.74V-181.69M529.398 -232.74H578.24M529.398 -181.69H578.24M529.398 -181.69V-130.64M480.556 -130.64H529.398M480.556 -130.64V-79.59M578.24 -232.74V-181.69M578.24 -232.74H627.082V-181.69M578.24 -181.69H627.082M578.24 -181.69V-130.64M529.398 -130.64H578.24M529.398 -130.64V-79.59M627.082 -181.69V-130.64M578.24 -130.64H627.082M578.24 -130.64V-79.59M627.082 -130.64V-79.59M-56.7059 -79.59H-105.548M-56.7059 -79.59H-7.86386M-56.7059 -79.59V-28.5404M-105.548 -79.59V-28.5404M-7.86386 -79.59H40.9781M-7.86386 -79.59V-28.5404M40.9781 -79.59H89.8201M40.9781 -79.59V-28.5404M89.8201 -79.59H138.662M89.8201 -79.59V-28.5404M138.662 -79.59H187.504M138.662 -79.59V-28.5404M187.504 -79.59H236.346M187.504 -79.59V-28.5404M236.346 -79.59H285.188M236.346 -79.59V-28.5404M285.188 -79.59H334.03M285.188 -79.59V-28.5404M334.03 -79.59H382.872M334.03 -79.59V-28.5404M382.872 -79.59H431.714M382.872 -79.59V-28.5404M431.714 -79.59H480.556M431.714 -79.59V-28.5404M480.556 -79.59H529.398M480.556 -79.59V-28.5404M529.398 -79.59H578.24M529.398 -79.59V-28.5404M578.24 -79.59H627.082M578.24 -79.59V-28.5404M627.082 -79.59V-28.5404M-56.7059 -28.5404H-105.548M-56.7059 -28.5404H-7.86386M-56.7059 -28.5404V22.5099M-105.548 -28.5404V22.5099M-7.86386 -28.5404H40.9781M-7.86386 -28.5404V22.5099M40.9781 -28.5404H89.8201M40.9781 -28.5404V22.5099M89.8201 -28.5404H138.662M89.8201 -28.5404V22.5099M138.662 -28.5404H187.504M138.662 -28.5404V22.5099M187.504 -28.5404H236.346M187.504 -28.5404V22.5099M236.346 -28.5404H285.188M236.346 -28.5404V22.5099M285.188 -28.5404H334.03M285.188 -28.5404V22.5099M334.03 -28.5404H382.872M334.03 -28.5404V22.5099M382.872 -28.5404H431.714M382.872 -28.5404V22.5099M431.714 -28.5404H480.556M431.714 -28.5404V22.5099M480.556 -28.5404H529.398M480.556 -28.5404V22.5099M529.398 -28.5404H578.24M529.398 -28.5404V22.5099M578.24 -28.5404H627.082M578.24 -28.5404V22.5099M627.082 -28.5404V22.5099M-56.7059 22.5099H-105.548M-56.7059 22.5099H-7.86386M-56.7059 22.5099V73.5603M-105.548 22.5099V73.5603M-7.86386 22.5099H40.9781M-7.86386 22.5099V73.5603M40.9781 22.5099H89.8201M40.9781 22.5099V73.5603M89.8201 22.5099H138.662M89.8201 22.5099V73.5603M138.662 22.5099H187.504M138.662 22.5099V73.5603M187.504 22.5099H236.346M187.504 22.5099V73.5603M236.346 22.5099H285.188M236.346 22.5099V73.5603M285.188 22.5099H334.03M285.188 22.5099V73.5603M334.03 22.5099H382.872M334.03 22.5099V73.5603M382.872 22.5099H431.714M382.872 22.5099V73.5603M431.714 22.5099H480.556M431.714 22.5099V73.5603M480.556 22.5099H529.398M480.556 22.5099V73.5603M529.398 22.5099H578.24M529.398 22.5099V73.5603M578.24 22.5099H627.082M578.24 22.5099V73.5603M627.082 22.5099V73.5603M-56.7059 73.5603H-105.548M-56.7059 73.5603H-7.86386M-56.7059 73.5603V124.61M-105.548 73.5603V124.61M-7.86386 73.5603H40.9781M-7.86386 73.5603V124.61M40.9781 73.5603H89.8201M40.9781 73.5603V124.61M89.8201 73.5603H138.662M89.8201 73.5603V124.61M138.662 73.5603H187.504M138.662 73.5603V124.61M187.504 73.5603H236.346M187.504 73.5603V124.61M236.346 73.5603H285.188M236.346 73.5603V124.61M285.188 73.5603H334.03M285.188 73.5603V124.61M334.03 73.5603H382.872M334.03 73.5603V124.61M382.872 73.5603H431.714M382.872 73.5603V124.61M431.714 73.5603H480.556M431.714 73.5603V124.61M480.556 73.5603H529.398M480.556 73.5603V124.61M529.398 73.5603H578.24M529.398 73.5603V124.61M578.24 73.5603H627.082M578.24 73.5603V124.61M627.082 73.5603V124.61M-56.7059 124.61H-105.548M-56.7059 124.61H-7.86386M-56.7059 124.61V175.66M-105.548 124.61V175.66M-7.86386 124.61H40.9781M-7.86386 124.61V175.66M40.9781 124.61H89.8201M40.9781 124.61V175.66M89.8201 124.61H138.662M89.8201 124.61V175.66M138.662 124.61H187.504M138.662 124.61V175.66M187.504 124.61H236.346M187.504 124.61V175.66M236.346 124.61H285.188M236.346 124.61V175.66M285.188 124.61H334.03M285.188 124.61V175.66M334.03 124.61H382.872M334.03 124.61V175.66M382.872 124.61H431.714M382.872 124.61V175.66M431.714 124.61H480.556M431.714 124.61V175.66M480.556 124.61H529.398M480.556 124.61V175.66M529.398 124.61H578.24M529.398 124.61V175.66M578.24 124.61H627.082M578.24 124.61V175.66M627.082 124.61V175.66M-56.7059 175.66H-105.548M-56.7059 175.66H-7.86386M-56.7059 175.66V226.71M-105.548 175.66V226.71M-7.86386 175.66H40.9781M-7.86386 175.66V226.71M40.9781 175.66H89.8201M40.9781 175.66V226.71M89.8201 175.66H138.662M89.8201 175.66V226.71M138.662 175.66H187.504M138.662 175.66V226.71M187.504 175.66H236.346M187.504 175.66V226.71M236.346 175.66H285.188M236.346 175.66V226.71M285.188 175.66H334.03M285.188 175.66V226.71M334.03 175.66H382.872M334.03 175.66V226.71M382.872 175.66H431.714M382.872 175.66V226.71M431.714 175.66H480.556M431.714 175.66V226.71M480.556 175.66H529.398M480.556 175.66V226.71M529.398 175.66H578.24M529.398 175.66V226.71M578.24 175.66H627.082M578.24 175.66V226.71M627.082 175.66V226.71M-56.7059 226.71H-105.548M-56.7059 226.71H-7.86386M-56.7059 226.71V277.76M-105.548 226.71V277.76M-7.86386 226.71H40.9781M-7.86386 226.71V277.76M40.9781 226.71H89.8201M40.9781 226.71V277.76M89.8201 226.71H138.662M89.8201 226.71V277.76M138.662 226.71H187.504M138.662 226.71V277.76M187.504 226.71H236.346M187.504 226.71V277.76M236.346 226.71H285.188M236.346 226.71V277.76M285.188 226.71H334.03M285.188 226.71V277.76M334.03 226.71H382.872M334.03 226.71V277.76M382.872 226.71H431.714M382.872 226.71V277.76M431.714 226.71H480.556M431.714 226.71V277.76M480.556 226.71H529.398M480.556 226.71V277.76M529.398 226.71H578.24M529.398 226.71V277.76M578.24 226.71H627.082M578.24 226.71V277.76M627.082 226.71V277.76M-56.7059 277.76H-105.548M-56.7059 277.76H-7.86386M-56.7059 277.76V328.81M-105.548 277.76V328.81M-7.86386 277.76V328.81M-7.86386 277.76H16.5571H40.9781M40.9781 277.76H89.8201M40.9781 277.76V328.81M89.8201 277.76H138.662M89.8201 277.76V328.81M138.662 277.76H187.504M138.662 277.76V328.81M187.504 277.76H236.346M187.504 277.76V328.81M236.346 277.76H285.188M236.346 277.76V328.81M285.188 277.76H334.03M285.188 277.76V328.81M334.03 277.76H382.872M334.03 277.76V328.81M382.872 277.76H431.714M382.872 277.76V328.81M431.714 277.76H480.556M431.714 277.76V328.81M480.556 277.76H529.398M480.556 277.76V328.81M529.398 277.76H578.24M529.398 277.76V328.81M578.24 277.76H627.082M578.24 277.76V328.81M627.082 277.76V328.81M-56.7059 328.81H-105.548M-56.7059 328.81H-7.86386M-56.7059 328.81V379.86M-105.548 328.81V379.86M-7.86386 328.81H40.9781M-7.86386 328.81V379.86M40.9781 328.81H89.8201M40.9781 328.81V379.86M89.8201 328.81H138.662M89.8201 328.81V379.86M138.662 328.81H187.504M138.662 328.81V379.86M187.504 328.81H236.346M187.504 328.81V379.86M236.346 328.81H285.188M236.346 328.81V379.86M285.188 328.81H334.03M285.188 328.81V379.86M334.03 328.81H382.872M334.03 328.81V379.86M382.872 328.81H431.714M382.872 328.81V379.86M431.714 328.81H480.556M431.714 328.81V379.86M480.556 328.81H529.398M480.556 328.81V379.86M529.398 328.81H578.24M529.398 328.81V379.86M578.24 328.81H627.082M578.24 328.81V379.86M627.082 328.81V379.86M-56.7059 379.86H-105.548M-56.7059 379.86H-7.86386M-56.7059 379.86V430.91M-105.548 379.86V430.91M-7.86386 379.86H40.9781M-7.86386 379.86V430.91M40.9781 379.86H89.8201M40.9781 379.86V430.91M89.8201 379.86H138.662M89.8201 379.86V430.91M138.662 379.86H187.504M138.662 379.86V430.91M187.504 379.86H236.346M187.504 379.86V430.91M236.346 379.86H285.188M236.346 379.86V430.91M285.188 379.86H334.03M285.188 379.86V430.91M334.03 379.86H382.872M334.03 379.86V430.91M382.872 379.86H431.714M382.872 379.86V430.91M431.714 379.86H480.556M431.714 379.86V430.91M480.556 379.86H529.398M480.556 379.86V430.91M529.398 379.86H578.24M529.398 379.86V430.91M578.24 379.86H627.082M578.24 379.86V430.91M627.082 379.86V430.91M-56.7059 430.91H-105.548M-56.7059 430.91H-7.86386M-56.7059 430.91V481.96M-105.548 430.91V481.96M-7.86386 430.91H40.9781M-7.86386 430.91V481.96M40.9781 430.91H89.8201M40.9781 430.91V481.96M89.8201 430.91H138.662M89.8201 430.91V481.96M138.662 430.91H187.504M138.662 430.91V481.96M187.504 430.91H236.346M187.504 430.91V481.96M236.346 430.91H285.188M236.346 430.91V481.96M285.188 430.91H334.03M285.188 430.91V481.96M334.03 430.91H382.872M334.03 430.91V481.96M382.872 430.91H431.714M382.872 430.91V481.96M431.714 430.91H480.556M431.714 430.91V481.96M480.556 430.91H529.398M480.556 430.91V481.96M529.398 430.91H578.24M529.398 430.91V481.96M578.24 430.91H627.082M578.24 430.91V481.96M627.082 430.91V481.96M-56.7059 481.96H-105.548M-56.7059 481.96H-7.86386M-56.7059 481.96V533.01M-105.548 481.96V533.01H-56.7059M-7.86386 481.96H40.9781M-7.86386 481.96V533.01M40.9781 481.96H89.8201M40.9781 481.96V533.01M89.8201 481.96H138.662M89.8201 481.96V533.01M138.662 481.96H187.504M138.662 481.96V533.01M187.504 481.96H236.346M187.504 481.96V533.01M236.346 481.96H285.188M236.346 481.96V533.01M285.188 481.96H334.03M285.188 481.96V533.01M334.03 481.96H382.872M334.03 481.96V533.01M382.872 481.96H431.714M382.872 481.96V533.01M431.714 481.96H480.556M431.714 481.96V533.01M480.556 481.96H529.398M480.556 481.96V533.01M529.398 481.96H578.24M529.398 481.96V533.01M578.24 481.96H627.082M578.24 481.96V533.01M627.082 481.96V533.01H578.24M-56.7059 533.01H-7.86386M-7.86386 533.01H40.9781M40.9781 533.01H89.8201M89.8201 533.01H138.662M138.662 533.01H187.504M187.504 533.01H236.346M236.346 533.01H285.188M285.188 533.01H334.03M334.03 533.01H382.872M382.872 533.01H431.714M431.714 533.01H480.556M480.556 533.01H529.398M529.398 533.01H578.24" stroke="url(#paint4_radial_241_580)" stroke-opacity="0.2" stroke-width="0.6"/>
<circle cx="76.45" cy="267.124" r="0.838699" fill="#D9D9D9"/>
<circle cx="302.899" cy="265.447" r="0.838699" fill="#D9D9D9"/>
<circle cx="462.962" cy="107.482" r="0.838699" fill="#D9D9D9"/>
<circle cx="462.252" cy="283.897" r="0.838699" fill="#D9D9D9"/>
<circle cx="166.901" cy="32.8387" r="0.838699" fill="#D9D9D9"/>
<g filter="url(#filter0_d_241_580)">
<circle cx="173.611" cy="156.127" r="0.838699" fill="#585858"/>
</g>
<g filter="url(#filter1_d_241_580)">
<circle cx="512.445" cy="114.191" r="0.838699" fill="#585858"/>
</g>
<g filter="url(#filter2_d_241_580)">
<circle cx="354.769" cy="57.16" r="0.838699" fill="#585858"/>
</g>
</g>
<defs>
<filter id="filter0_d_241_580" x="167.972" y="155.288" width="11.2777" height="11.2777" filterUnits="userSpaceOnUse" color-interpolation-filters="sRGB">
<feFlood flood-opacity="0" result="BackgroundImageFix"/>
<feColorMatrix in="SourceAlpha" type="matrix" values="0 0 0 0 0 0 0 0 0 0 0 0 0 0 0 0 0 0 127 0" result="hardAlpha"/>
<feOffset dy="4.8"/>
<feGaussianBlur stdDeviation="2.4"/>
<feComposite in2="hardAlpha" operator="out"/>
<feColorMatrix type="matrix" values="0 0 0 0 0 0 0 0 0 0 0 0 0 0 0 0 0 0 0.25 0"/>
<feBlend mode="normal" in2="BackgroundImageFix" result="effect1_dropShadow_241_580"/>
<feBlend mode="normal" in="SourceGraphic" in2="effect1_dropShadow_241_580" result="shape"/>
</filter>
<filter id="filter1_d_241_580" x="506.806" y="113.353" width="11.2777" height="11.2777" filterUnits="userSpaceOnUse" color-interpolation-filters="sRGB">
<feFlood flood-opacity="0" result="BackgroundImageFix"/>
<feColorMatrix in="SourceAlpha" type="matrix" values="0 0 0 0 0 0 0 0 0 0 0 0 0 0 0 0 0 0 127 0" result="hardAlpha"/>
<feOffset dy="4.8"/>
<feGaussianBlur stdDeviation="2.4"/>
<feComposite in2="hardAlpha" operator="out"/>
<feColorMatrix type="matrix" values="0 0 0 0 0 0 0 0 0 0 0 0 0 0 0 0 0 0 0.25 0"/>
<feBlend mode="normal" in2="BackgroundImageFix" result="effect1_dropShadow_241_580"/>
<feBlend mode="normal" in="SourceGraphic" in2="effect1_dropShadow_241_580" result="shape"/>
</filter>
<filter id="filter2_d_241_580" x="349.131" y="56.3213" width="11.2777" height="11.2777" filterUnits="userSpaceOnUse" color-interpolation-filters="sRGB">
<feFlood flood-opacity="0" result="BackgroundImageFix"/>
<feColorMatrix in="SourceAlpha" type="matrix" values="0 0 0 0 0 0 0 0 0 0 0 0 0 0 0 0 0 0 127 0" result="hardAlpha"/>
<feOffset dy="4.8"/>
<feGaussianBlur stdDeviation="2.4"/>
<feComposite in2="hardAlpha" operator="out"/>
<feColorMatrix type="matrix" values="0 0 0 0 0 0 0 0 0 0 0 0 0 0 0 0 0 0 0.25 0"/>
<feBlend mode="normal" in2="BackgroundImageFix" result="effect1_dropShadow_241_580"/>
<feBlend mode="normal" in="SourceGraphic" in2="effect1_dropShadow_241_580" result="shape"/>
</filter>
<radialGradient id="paint0_radial_241_580" cx="0" cy="0" r="1" gradientUnits="userSpaceOnUse" gradientTransform="translate(66.5 279.129) rotate(90.677) scale(36.1842 62.7935)">
<stop stop-color="white" stop-opacity="0.8"/>
<stop offset="1" stop-color="#05041F"/>
</radialGradient>
<radialGradient id="paint1_radial_241_580" cx="0" cy="0" r="1" gradientUnits="userSpaceOnUse" gradientTransform="translate(163.267 124.813) rotate(90) scale(38.4152 66.6641)">
<stop stop-color="white" stop-opacity="0.8"/>
<stop offset="1" stop-color="#05041F"/>
</radialGradient>
<radialGradient id="paint2_radial_241_580" cx="0" cy="0" r="1" gradientUnits="userSpaceOnUse" gradientTransform="translate(408.278 227.715) rotate(90.6768) scale(36.1843 62.7935)">
<stop stop-color="white" stop-opacity="0.8"/>
<stop offset="1" stop-color="#05041F"/>
</radialGradient>
<radialGradient id="paint3_radial_241_580" cx="0" cy="0" r="1" gradientUnits="userSpaceOnUse" gradientTransform="translate(407.362 74.2725) rotate(90) scale(39.3085 68.2144)">
<stop stop-color="white" stop-opacity="0.8"/>
<stop offset="1" stop-color="#05041F"/>
</radialGradient>
<radialGradient id="paint4_radial_241_580" cx="0" cy="0" r="1" gradientUnits="userSpaceOnUse" gradientTransform="translate(261.176 150.454) rotate(90) scale(271.139 259.412)">
<stop stop-color="white"/>
<stop offset="1" stop-color="white" stop-opacity="0"/>
</radialGradient>
</defs>
</svg>
