<svg width="95" height="17" viewBox="0 0 95 17" fill="none" xmlns="http://www.w3.org/2000/svg">
<path d="M55.04 0.079999H62.984V17H57.248V5.288L49.952 17H13.304L6.008 5.288V17H0.44V0.079999H8.672L15.056 10.568H48.632L55.04 0.079999ZM85.6535 10.016C86.2295 10.64 86.5175 11.456 86.5175 12.464V17H81.3095V14.048C81.3095 13.04 81.0455 12.296 80.5175 11.84C79.9895 11.384 79.1015 11.144 77.8295 11.144H71.0615V17H65.8775V0.487999H79.2455C84.0455 0.487999 86.4455 1.928 86.4455 4.784V5.048C86.4455 6.8 85.4135 8 83.3735 8.672C84.3095 8.936 85.0775 9.368 85.6535 10.016ZM81.0215 5.864V5.84C81.0215 5.36 80.8535 4.976 80.5175 4.688C80.1815 4.4 79.6535 4.232 78.9335 4.232H71.0615V7.496H78.9335C79.6535 7.496 80.1815 7.328 80.5175 7.04C80.8535 6.752 81.0215 6.344 81.0215 5.864ZM94.7686 0.248V17H89.0566V0.248H94.7686Z" fill="#F6F6F6"/>
</svg>
