<svg width="1440" height="587" viewBox="0 0 1440 587" fill="none" xmlns="http://www.w3.org/2000/svg">
<mask id="mask0_421_386" style="mask-type:luminance" maskUnits="userSpaceOnUse" x="0" y="0" width="1440" height="587">
<path d="M0 0H1440V587H0V0Z" fill="white"/>
</mask>
<g mask="url(#mask0_421_386)">
<path d="M351.115 369.866H245.299V420.917H351.115V369.866Z" fill="url(#paint0_radial_421_386)" fill-opacity="0.06"/>
<path d="M561.892 114.063H456.076V165.114H561.892V114.063Z" fill="url(#paint1_radial_421_386)" fill-opacity="0.06"/>
<path d="M667.279 471.35H561.463V522.4H667.279V471.35Z" fill="url(#paint2_radial_421_386)" fill-opacity="0.06"/>
<path d="M1090.65 421.027H984.834V472.077H1090.65V421.027Z" fill="url(#paint3_radial_421_386)" fill-opacity="0.06"/>
<path d="M1090.65 62.9033H984.834V113.954H1090.65V62.9033Z" fill="url(#paint4_radial_421_386)" fill-opacity="0.06"/>
<path d="M33.1341 -89.7402H-72.6816V-38.6899M33.1341 -89.7402V-38.6899M33.1341 -89.7402H138.95M-72.6816 -38.6899H33.1341M-72.6816 -38.6899V12.3597M33.1341 -38.6899H138.95M33.1341 -38.6899V12.3597M138.95 -89.7402V-38.6899M138.95 -89.7402H244.766M138.95 -38.6899H244.766M138.95 -38.6899V12.3597M33.1341 12.3597H-72.6816M33.1341 12.3597H138.95M33.1341 12.3597V63.41M-72.6816 12.3597V63.41M244.766 -89.7402V-38.6899M244.766 -89.7402H350.581M244.766 -38.6899H350.581M244.766 -38.6899V12.3597M138.95 12.3597H244.766M138.95 12.3597V63.41M350.581 -89.7402V-38.6899M350.581 -89.7402H456.397M350.581 -38.6899H456.397M350.581 -38.6899V12.3597M244.766 12.3597H350.581M244.766 12.3597V63.41M456.397 -89.7402V-38.6899M456.397 -89.7402H562.213M456.397 -38.6899H562.213M456.397 -38.6899V12.3597M350.581 12.3597H456.397M350.581 12.3597V63.41M562.213 -89.7402V-38.6899M562.213 -89.7402H668.029M562.213 -38.6899H668.029M562.213 -38.6899V12.3597M456.397 12.3597H562.213M456.397 12.3597V63.41M668.029 -89.7402V-38.6899M668.029 -89.7402H773.844M668.029 -38.6899H773.844M668.029 -38.6899V12.3597M562.213 12.3597H668.029M562.213 12.3597V63.41M773.844 -89.7402V-38.6899M773.844 -89.7402H879.66M773.844 -38.6899H879.66M773.844 -38.6899V12.3597M668.029 12.3597H773.844M668.029 12.3597V63.41M879.66 -89.7402V-38.6899M879.66 -89.7402H985.476M879.66 -38.6899H985.476M879.66 -38.6899V12.3597M773.844 12.3597H879.66M773.844 12.3597V63.41M985.476 -89.7402V-38.6899M985.476 -89.7402H1091.29M985.476 -38.6899H1091.29M985.476 -38.6899V12.3597M879.66 12.3597H985.476M879.66 12.3597V63.41M1091.29 -89.7402V-38.6899M1091.29 -89.7402H1197.11M1091.29 -38.6899H1197.11M1091.29 -38.6899V12.3597M985.476 12.3597H1091.29M985.476 12.3597V63.41M1197.11 -89.7402V-38.6899M1197.11 -89.7402H1302.92M1197.11 -38.6899H1302.92M1197.11 -38.6899V12.3597M1091.29 12.3597H1197.11M1091.29 12.3597V63.41M1302.92 -89.7402V-38.6899M1302.92 -89.7402H1408.74M1302.92 -38.6899H1408.74M1302.92 -38.6899V12.3597M1197.11 12.3597H1302.92M1197.11 12.3597V63.41M1408.74 -89.7402V-38.6899M1408.74 -89.7402H1514.55V-38.6899M1408.74 -38.6899H1514.55M1408.74 -38.6899V12.3597M1302.92 12.3597H1408.74M1302.92 12.3597V63.41M1514.55 -38.6899V12.3597M1408.74 12.3597H1514.55M1408.74 12.3597V63.41M1514.55 12.3597V63.41M33.1341 63.41H-72.6816M33.1341 63.41H138.95M33.1341 63.41V114.46M-72.6816 63.41V114.46M138.95 63.41H244.766M138.95 63.41V114.46M244.766 63.41H350.581M244.766 63.41V114.46M350.581 63.41H456.397M350.581 63.41V114.46M456.397 63.41H562.213M456.397 63.41V114.46M562.213 63.41H668.029M562.213 63.41V114.46M668.029 63.41H773.844M668.029 63.41V114.46M773.844 63.41H879.66M773.844 63.41V114.46M879.66 63.41H985.476M879.66 63.41V114.46M985.476 63.41H1091.29M985.476 63.41V114.46M1091.29 63.41H1197.11M1091.29 63.41V114.46M1197.11 63.41H1302.92M1197.11 63.41V114.46M1302.92 63.41H1408.74M1302.92 63.41V114.46M1408.74 63.41H1514.55M1408.74 63.41V114.46M1514.55 63.41V114.46M33.1341 114.46H-72.6816M33.1341 114.46H138.95M33.1341 114.46V165.51M-72.6816 114.46V165.51M138.95 114.46H244.766M138.95 114.46V165.51M244.766 114.46H350.581M244.766 114.46V165.51M350.581 114.46H456.397M350.581 114.46V165.51M456.397 114.46H562.213M456.397 114.46V165.51M562.213 114.46H668.029M562.213 114.46V165.51M668.029 114.46H773.844M668.029 114.46V165.51M773.844 114.46H879.66M773.844 114.46V165.51M879.66 114.46H985.476M879.66 114.46V165.51M985.476 114.46H1091.29M985.476 114.46V165.51M1091.29 114.46H1197.11M1091.29 114.46V165.51M1197.11 114.46H1302.92M1197.11 114.46V165.51M1302.92 114.46H1408.74M1302.92 114.46V165.51M1408.74 114.46H1514.55M1408.74 114.46V165.51M1514.55 114.46V165.51M33.1341 165.51H-72.6816M33.1341 165.51H138.95M33.1341 165.51V216.56M-72.6816 165.51V216.56M138.95 165.51H244.766M138.95 165.51V216.56M244.766 165.51H350.581M244.766 165.51V216.56M350.581 165.51H456.397M350.581 165.51V216.56M456.397 165.51H562.213M456.397 165.51V216.56M562.213 165.51H668.029M562.213 165.51V216.56M668.029 165.51H773.844M668.029 165.51V216.56M773.844 165.51H879.66M773.844 165.51V216.56M879.66 165.51H985.476M879.66 165.51V216.56M985.476 165.51H1091.29M985.476 165.51V216.56M1091.29 165.51H1197.11M1091.29 165.51V216.56M1197.11 165.51H1302.92M1197.11 165.51V216.56M1302.92 165.51H1408.74M1302.92 165.51V216.56M1408.74 165.51H1514.55M1408.74 165.51V216.56M1514.55 165.51V216.56M33.1341 216.56H-72.6816M33.1341 216.56H138.95M33.1341 216.56V267.61M-72.6816 216.56V267.61M138.95 216.56H244.766M138.95 216.56V267.61M244.766 216.56H350.581M244.766 216.56V267.61M350.581 216.56H456.397M350.581 216.56V267.61M456.397 216.56H562.213M456.397 216.56V267.61M562.213 216.56H668.029M562.213 216.56V267.61M668.029 216.56H773.844M668.029 216.56V267.61M773.844 216.56H879.66M773.844 216.56V267.61M879.66 216.56H985.476M879.66 216.56V267.61M985.476 216.56H1091.29M985.476 216.56V267.61M1091.29 216.56H1197.11M1091.29 216.56V267.61M1197.11 216.56H1302.92M1197.11 216.56V267.61M1302.92 216.56H1408.74M1302.92 216.56V267.61M1408.74 216.56H1514.55M1408.74 216.56V267.61M1514.55 216.56V267.61M33.1341 267.61H-72.6816M33.1341 267.61H138.95M33.1341 267.61V318.66M-72.6816 267.61V318.66M138.95 267.61H244.766M138.95 267.61V318.66M244.766 267.61H350.581M244.766 267.61V318.66M350.581 267.61H456.397M350.581 267.61V318.66M456.397 267.61H562.213M456.397 267.61V318.66M562.213 267.61H668.029M562.213 267.61V318.66M668.029 267.61H773.844M668.029 267.61V318.66M773.844 267.61H879.66M773.844 267.61V318.66M879.66 267.61H985.476M879.66 267.61V318.66M985.476 267.61H1091.29M985.476 267.61V318.66M1091.29 267.61H1197.11M1091.29 267.61V318.66M1197.11 267.61H1302.92M1197.11 267.61V318.66M1302.92 267.61H1408.74M1302.92 267.61V318.66M1408.74 267.61H1514.55M1408.74 267.61V318.66M1514.55 267.61V318.66M33.1341 318.66H-72.6816M33.1341 318.66H138.95M33.1341 318.66V369.71M-72.6816 318.66V369.71M138.95 318.66H244.766M138.95 318.66V369.71M244.766 318.66H350.581M244.766 318.66V369.71M350.581 318.66H456.397M350.581 318.66V369.71M456.397 318.66H562.213M456.397 318.66V369.71M562.213 318.66H668.029M562.213 318.66V369.71M668.029 318.66H773.844M668.029 318.66V369.71M773.844 318.66H879.66M773.844 318.66V369.71M879.66 318.66H985.476M879.66 318.66V369.71M985.476 318.66H1091.29M985.476 318.66V369.71M1091.29 318.66H1197.11M1091.29 318.66V369.71M1197.11 318.66H1302.92M1197.11 318.66V369.71M1302.92 318.66H1408.74M1302.92 318.66V369.71M1408.74 318.66H1514.55M1408.74 318.66V369.71M1514.55 318.66V369.71M33.1341 369.71H-72.6816M33.1341 369.71H138.95M33.1341 369.71V420.76M-72.6816 369.71V420.76M138.95 369.71H244.766M138.95 369.71V420.76M244.766 369.71H350.581M244.766 369.71V420.76M350.581 369.71H456.397M350.581 369.71V420.76M456.397 369.71H562.213M456.397 369.71V420.76M562.213 369.71H668.029M562.213 369.71V420.76M668.029 369.71H773.844M668.029 369.71V420.76M773.844 369.71H879.66M773.844 369.71V420.76M879.66 369.71H985.476M879.66 369.71V420.76M985.476 369.71H1091.29M985.476 369.71V420.76M1091.29 369.71H1197.11M1091.29 369.71V420.76M1197.11 369.71H1302.92M1197.11 369.71V420.76M1302.92 369.71H1408.74M1302.92 369.71V420.76M1408.74 369.71H1514.55M1408.74 369.71V420.76M1514.55 369.71V420.76M33.1341 420.76H-72.6816M33.1341 420.76H138.95M33.1341 420.76V471.81M-72.6816 420.76V471.81M138.95 420.76V471.81M138.95 420.76H191.858H244.766M244.766 420.76H350.581M244.766 420.76V471.81M350.581 420.76H456.397M350.581 420.76V471.81M456.397 420.76H562.213M456.397 420.76V471.81M562.213 420.76H668.029M562.213 420.76V471.81M668.029 420.76H773.844M668.029 420.76V471.81M773.844 420.76H879.66M773.844 420.76V471.81M879.66 420.76H985.476M879.66 420.76V471.81M985.476 420.76H1091.29M985.476 420.76V471.81M1091.29 420.76H1197.11M1091.29 420.76V471.81M1197.11 420.76H1302.92M1197.11 420.76V471.81M1302.92 420.76H1408.74M1302.92 420.76V471.81M1408.74 420.76H1514.55M1408.74 420.76V471.81M1514.55 420.76V471.81M33.1341 471.81H-72.6816M33.1341 471.81H138.95M33.1341 471.81V522.86M-72.6816 471.81V522.86M138.95 471.81H244.766M138.95 471.81V522.86M244.766 471.81H350.581M244.766 471.81V522.86M350.581 471.81H456.397M350.581 471.81V522.86M456.397 471.81H562.213M456.397 471.81V522.86M562.213 471.81H668.029M562.213 471.81V522.86M668.029 471.81H773.844M668.029 471.81V522.86M773.844 471.81H879.66M773.844 471.81V522.86M879.66 471.81H985.476M879.66 471.81V522.86M985.476 471.81H1091.29M985.476 471.81V522.86M1091.29 471.81H1197.11M1091.29 471.81V522.86M1197.11 471.81H1302.92M1197.11 471.81V522.86M1302.92 471.81H1408.74M1302.92 471.81V522.86M1408.74 471.81H1514.55M1408.74 471.81V522.86M1514.55 471.81V522.86M33.1341 522.86H-72.6816M33.1341 522.86H138.95M33.1341 522.86V573.91M-72.6816 522.86V573.91M138.95 522.86H244.766M138.95 522.86V573.91M244.766 522.86H350.581M244.766 522.86V573.91M350.581 522.86H456.397M350.581 522.86V573.91M456.397 522.86H562.213M456.397 522.86V573.91M562.213 522.86H668.029M562.213 522.86V573.91M668.029 522.86H773.844M668.029 522.86V573.91M773.844 522.86H879.66M773.844 522.86V573.91M879.66 522.86H985.476M879.66 522.86V573.91M985.476 522.86H1091.29M985.476 522.86V573.91M1091.29 522.86H1197.11M1091.29 522.86V573.91M1197.11 522.86H1302.92M1197.11 522.86V573.91M1302.92 522.86H1408.74M1302.92 522.86V573.91M1408.74 522.86H1514.55M1408.74 522.86V573.91M1514.55 522.86V573.91M33.1341 573.91H-72.6816M33.1341 573.91H138.95M33.1341 573.91V624.96M-72.6816 573.91V624.96M138.95 573.91H244.766M138.95 573.91V624.96M244.766 573.91H350.581M244.766 573.91V624.96M350.581 573.91H456.397M350.581 573.91V624.96M456.397 573.91H562.213M456.397 573.91V624.96M562.213 573.91H668.029M562.213 573.91V624.96M668.029 573.91H773.844M668.029 573.91V624.96M773.844 573.91H879.66M773.844 573.91V624.96M879.66 573.91H985.476M879.66 573.91V624.96M985.476 573.91H1091.29M985.476 573.91V624.96M1091.29 573.91H1197.11M1091.29 573.91V624.96M1197.11 573.91H1302.92M1197.11 573.91V624.96M1302.92 573.91H1408.74M1302.92 573.91V624.96M1408.74 573.91H1514.55M1408.74 573.91V624.96M1514.55 573.91V624.96M33.1341 624.96H-72.6816M33.1341 624.96H138.95M33.1341 624.96V676.01M-72.6816 624.96V676.01H33.1341M138.95 624.96H244.766M138.95 624.96V676.01M244.766 624.96H350.581M244.766 624.96V676.01M350.581 624.96H456.397M350.581 624.96V676.01M456.397 624.96H562.213M456.397 624.96V676.01M562.213 624.96H668.029M562.213 624.96V676.01M668.029 624.96H773.844M668.029 624.96V676.01M773.844 624.96H879.66M773.844 624.96V676.01M879.66 624.96H985.476M879.66 624.96V676.01M985.476 624.96H1091.29M985.476 624.96V676.01M1091.29 624.96H1197.11M1091.29 624.96V676.01M1197.11 624.96H1302.92M1197.11 624.96V676.01M1302.92 624.96H1408.74M1302.92 624.96V676.01M1408.74 624.96H1514.55M1408.74 624.96V676.01M1514.55 624.96V676.01H1408.74M33.1341 676.01H138.95M138.95 676.01H244.766M244.766 676.01H350.581M350.581 676.01H456.397M456.397 676.01H562.213M562.213 676.01H668.029M668.029 676.01H773.844M773.844 676.01H879.66M879.66 676.01H985.476M985.476 676.01H1091.29M1091.29 676.01H1197.11M1197.11 676.01H1302.92M1302.92 676.01H1408.74" stroke="url(#paint5_radial_421_386)" stroke-opacity="0.2" stroke-width="0.6"/>
<ellipse cx="321.616" cy="410.124" rx="1.81703" ry="0.838699" fill="#D9D9D9"/>
<ellipse cx="812.215" cy="408.447" rx="1.81703" ry="0.838699" fill="#D9D9D9"/>
<ellipse cx="1068.42" cy="185.352" rx="1.81703" ry="0.838699" fill="#D9D9D9"/>
<ellipse cx="1157.45" cy="426.897" rx="1.81703" ry="0.838699" fill="#D9D9D9"/>
<ellipse cx="427.005" cy="110.709" rx="1.81703" ry="0.838699" fill="#D9D9D9"/>
<g filter="url(#filter0_d_421_386)">
<ellipse cx="10.902" cy="216.385" rx="1.81703" ry="0.838699" fill="#585858"/>
</g>
<g filter="url(#filter1_d_421_386)">
<ellipse cx="441.538" cy="233.997" rx="1.81703" ry="0.838699" fill="#585858"/>
</g>
<g filter="url(#filter2_d_421_386)">
<ellipse cx="1175.62" cy="192.061" rx="1.81703" ry="0.838699" fill="#585858"/>
</g>
<g filter="url(#filter3_d_421_386)">
<ellipse cx="834.02" cy="135.03" rx="1.81703" ry="0.838699" fill="#585858"/>
</g>
</g>
<defs>
<filter id="filter0_d_421_386" x="4.28496" y="215.546" width="13.2338" height="11.2777" filterUnits="userSpaceOnUse" color-interpolation-filters="sRGB">
<feFlood flood-opacity="0" result="BackgroundImageFix"/>
<feColorMatrix in="SourceAlpha" type="matrix" values="0 0 0 0 0 0 0 0 0 0 0 0 0 0 0 0 0 0 127 0" result="hardAlpha"/>
<feOffset dy="4.8"/>
<feGaussianBlur stdDeviation="2.4"/>
<feComposite in2="hardAlpha" operator="out"/>
<feColorMatrix type="matrix" values="0 0 0 0 0 0 0 0 0 0 0 0 0 0 0 0 0 0 0.25 0"/>
<feBlend mode="normal" in2="BackgroundImageFix" result="effect1_dropShadow_421_386"/>
<feBlend mode="normal" in="SourceGraphic" in2="effect1_dropShadow_421_386" result="shape"/>
</filter>
<filter id="filter1_d_421_386" x="434.921" y="233.158" width="13.2348" height="11.2777" filterUnits="userSpaceOnUse" color-interpolation-filters="sRGB">
<feFlood flood-opacity="0" result="BackgroundImageFix"/>
<feColorMatrix in="SourceAlpha" type="matrix" values="0 0 0 0 0 0 0 0 0 0 0 0 0 0 0 0 0 0 127 0" result="hardAlpha"/>
<feOffset dy="4.8"/>
<feGaussianBlur stdDeviation="2.4"/>
<feComposite in2="hardAlpha" operator="out"/>
<feColorMatrix type="matrix" values="0 0 0 0 0 0 0 0 0 0 0 0 0 0 0 0 0 0 0.25 0"/>
<feBlend mode="normal" in2="BackgroundImageFix" result="effect1_dropShadow_421_386"/>
<feBlend mode="normal" in="SourceGraphic" in2="effect1_dropShadow_421_386" result="shape"/>
</filter>
<filter id="filter2_d_421_386" x="1169.01" y="191.223" width="13.2348" height="11.2777" filterUnits="userSpaceOnUse" color-interpolation-filters="sRGB">
<feFlood flood-opacity="0" result="BackgroundImageFix"/>
<feColorMatrix in="SourceAlpha" type="matrix" values="0 0 0 0 0 0 0 0 0 0 0 0 0 0 0 0 0 0 127 0" result="hardAlpha"/>
<feOffset dy="4.8"/>
<feGaussianBlur stdDeviation="2.4"/>
<feComposite in2="hardAlpha" operator="out"/>
<feColorMatrix type="matrix" values="0 0 0 0 0 0 0 0 0 0 0 0 0 0 0 0 0 0 0.25 0"/>
<feBlend mode="normal" in2="BackgroundImageFix" result="effect1_dropShadow_421_386"/>
<feBlend mode="normal" in="SourceGraphic" in2="effect1_dropShadow_421_386" result="shape"/>
</filter>
<filter id="filter3_d_421_386" x="827.403" y="134.191" width="13.2348" height="11.2777" filterUnits="userSpaceOnUse" color-interpolation-filters="sRGB">
<feFlood flood-opacity="0" result="BackgroundImageFix"/>
<feColorMatrix in="SourceAlpha" type="matrix" values="0 0 0 0 0 0 0 0 0 0 0 0 0 0 0 0 0 0 127 0" result="hardAlpha"/>
<feOffset dy="4.8"/>
<feGaussianBlur stdDeviation="2.4"/>
<feComposite in2="hardAlpha" operator="out"/>
<feColorMatrix type="matrix" values="0 0 0 0 0 0 0 0 0 0 0 0 0 0 0 0 0 0 0.25 0"/>
<feBlend mode="normal" in2="BackgroundImageFix" result="effect1_dropShadow_421_386"/>
<feBlend mode="normal" in="SourceGraphic" in2="effect1_dropShadow_421_386" result="shape"/>
</filter>
<radialGradient id="paint0_radial_421_386" cx="0" cy="0" r="1" gradientUnits="userSpaceOnUse" gradientTransform="translate(300.058 422.129) rotate(91.4665) scale(36.1935 136.006)">
<stop stop-color="white" stop-opacity="0.8"/>
<stop offset="1" stop-color="#05041F"/>
</radialGradient>
<radialGradient id="paint1_radial_421_386" cx="0" cy="0" r="1" gradientUnits="userSpaceOnUse" gradientTransform="translate(509.704 165.813) rotate(90) scale(38.4152 144.427)">
<stop stop-color="white" stop-opacity="0.8"/>
<stop offset="1" stop-color="#05041F"/>
</radialGradient>
<radialGradient id="paint2_radial_421_386" cx="0" cy="0" r="1" gradientUnits="userSpaceOnUse" gradientTransform="translate(614.501 521.445) rotate(94.2855) scale(37.179 139.181)">
<stop stop-color="white" stop-opacity="0.8"/>
<stop offset="1" stop-color="#05041F"/>
</radialGradient>
<radialGradient id="paint3_radial_421_386" cx="0" cy="0" r="1" gradientUnits="userSpaceOnUse" gradientTransform="translate(1040.52 472.715) rotate(91.466) scale(36.1936 136.006)">
<stop stop-color="white" stop-opacity="0.8"/>
<stop offset="1" stop-color="#05041F"/>
</radialGradient>
<radialGradient id="paint4_radial_421_386" cx="0" cy="0" r="1" gradientUnits="userSpaceOnUse" gradientTransform="translate(1038.53 114.273) rotate(90) scale(39.3085 147.786)">
<stop stop-color="white" stop-opacity="0.8"/>
<stop offset="1" stop-color="#05041F"/>
</radialGradient>
<radialGradient id="paint5_radial_421_386" cx="0" cy="0" r="1" gradientUnits="userSpaceOnUse" gradientTransform="translate(721.822 293.454) rotate(90) scale(271.139 562.014)">
<stop stop-color="white"/>
<stop offset="1" stop-color="white" stop-opacity="0"/>
</radialGradient>
</defs>
</svg>
