<svg width="34" height="34" viewBox="0 0 34 34" fill="none" xmlns="http://www.w3.org/2000/svg">
<path d="M8.5 4.25C7.37283 4.25 6.29183 4.69777 5.4948 5.4948C4.69777 6.29183 4.25 7.37283 4.25 8.5V14.875C4.25 15.1568 4.13806 15.427 3.9388 15.6263C3.73954 15.8256 3.46929 15.9375 3.1875 15.9375C2.90571 15.9375 2.63546 16.0494 2.4362 16.2487C2.23694 16.448 2.125 16.7182 2.125 17C2.125 17.2818 2.23694 17.552 2.4362 17.7513C2.63546 17.9506 2.90571 18.0625 3.1875 18.0625C3.46929 18.0625 3.73954 18.1744 3.9388 18.3737C4.13806 18.573 4.25 18.8432 4.25 19.125V25.5C4.25 26.6272 4.69777 27.7082 5.4948 28.5052C6.29183 29.3022 7.37283 29.75 8.5 29.75C8.78179 29.75 9.05204 29.6381 9.2513 29.4388C9.45056 29.2395 9.5625 28.9693 9.5625 28.6875C9.5625 28.4057 9.45056 28.1355 9.2513 27.9362C9.05204 27.7369 8.78179 27.625 8.5 27.625C7.93641 27.625 7.39591 27.4011 6.9974 27.0026C6.59888 26.6041 6.375 26.0636 6.375 25.5V19.125C6.375 18.309 6.069 17.5631 5.56325 17C6.069 16.4369 6.375 15.691 6.375 14.875V8.5C6.375 7.93641 6.59888 7.39591 6.9974 6.9974C7.39591 6.59888 7.93641 6.375 8.5 6.375C8.78179 6.375 9.05204 6.26306 9.2513 6.0638C9.45056 5.86454 9.5625 5.59429 9.5625 5.3125C9.5625 5.03071 9.45056 4.76046 9.2513 4.5612C9.05204 4.36194 8.78179 4.25 8.5 4.25ZM25.5 4.25C26.6272 4.25 27.7082 4.69777 28.5052 5.4948C29.3022 6.29183 29.75 7.37283 29.75 8.5V14.875C29.75 15.1568 29.8619 15.427 30.0612 15.6263C30.2605 15.8256 30.5307 15.9375 30.8125 15.9375C31.0943 15.9375 31.3645 16.0494 31.5638 16.2487C31.7631 16.448 31.875 16.7182 31.875 17C31.875 17.2818 31.7631 17.552 31.5638 17.7513C31.3645 17.9506 31.0943 18.0625 30.8125 18.0625C30.5307 18.0625 30.2605 18.1744 30.0612 18.3737C29.8619 18.573 29.75 18.8432 29.75 19.125V25.5C29.75 26.6272 29.3022 27.7082 28.5052 28.5052C27.7082 29.3022 26.6272 29.75 25.5 29.75C25.2182 29.75 24.948 29.6381 24.7487 29.4388C24.5494 29.2395 24.4375 28.9693 24.4375 28.6875C24.4375 28.4057 24.5494 28.1355 24.7487 27.9362C24.948 27.7369 25.2182 27.625 25.5 27.625C26.0636 27.625 26.6041 27.4011 27.0026 27.0026C27.4011 26.6041 27.625 26.0636 27.625 25.5V19.125C27.625 18.309 27.931 17.5631 28.4368 17C27.914 16.4156 27.625 15.6591 27.625 14.875V8.5C27.625 7.93641 27.4011 7.39591 27.0026 6.9974C26.6041 6.59888 26.0636 6.375 25.5 6.375C25.2182 6.375 24.948 6.26306 24.7487 6.0638C24.5494 5.86454 24.4375 5.59429 24.4375 5.3125C24.4375 5.03071 24.5494 4.76046 24.7487 4.5612C24.948 4.36194 25.2182 4.25 25.5 4.25ZM17 25.5C19.2543 25.5 21.4163 24.6045 23.0104 23.0104C24.6045 21.4163 25.5 19.2543 25.5 17C25.5 14.7457 24.6045 12.5837 23.0104 10.9896C21.4163 9.39553 19.2543 8.5 17 8.5C14.7457 8.5 12.5837 9.39553 10.9896 10.9896C9.39553 12.5837 8.5 14.7457 8.5 17C8.5 19.2543 9.39553 21.4163 10.9896 23.0104C12.5837 24.6045 14.7457 25.5 17 25.5ZM19.4352 14.1227C19.534 14.024 19.6513 13.9456 19.7804 13.8921C19.9095 13.8387 20.0478 13.8112 20.1875 13.8112C20.3272 13.8112 20.4655 13.8387 20.5946 13.8921C20.7237 13.9456 20.841 14.024 20.9398 14.1227C21.0385 14.2215 21.1169 14.3388 21.1704 14.4679C21.2238 14.597 21.2513 14.7353 21.2513 14.875C21.2513 15.0147 21.2238 15.153 21.1704 15.2821C21.1169 15.4112 21.0385 15.5285 20.9398 15.6273L16.6898 19.8773C16.5911 19.9762 16.4738 20.0547 16.3447 20.1083C16.2156 20.1618 16.0773 20.1894 15.9375 20.1894C15.7977 20.1894 15.6594 20.1618 15.5303 20.1083C15.4012 20.0547 15.2839 19.9762 15.1852 19.8773L13.0602 17.7523C12.9615 17.6535 12.8831 17.5362 12.8296 17.4071C12.7762 17.278 12.7487 17.1397 12.7487 17C12.7487 16.8603 12.7762 16.722 12.8296 16.5929C12.8831 16.4638 12.9615 16.3465 13.0602 16.2477C13.159 16.149 13.2763 16.0706 13.4054 16.0171C13.5345 15.9637 13.6728 15.9362 13.8125 15.9362C13.9522 15.9362 14.0905 15.9637 14.2196 16.0171C14.3487 16.0706 14.466 16.149 14.5648 16.2477L15.9375 17.6226L19.4352 14.1227Z" fill="url(#paint0_linear_152_523)"/>
<defs>
<linearGradient id="paint0_linear_152_523" x1="17" y1="4.33776" x2="17" y2="29.7504" gradientUnits="userSpaceOnUse">
<stop stop-color="#F6F6F6"/>
<stop offset="1" stop-color="#535353"/>
</linearGradient>
</defs>
</svg>
