<svg width="34" height="34" viewBox="0 0 34 34" fill="none" xmlns="http://www.w3.org/2000/svg">
<path d="M27.4408 6.92742L19.1391 3.22992C17.9208 2.69159 16.0791 2.69159 14.8608 3.22992L6.55912 6.92742C4.46245 7.86242 4.15079 9.13742 4.15079 9.81742C4.15079 10.4974 4.46245 11.7724 6.55912 12.7074L14.8608 16.4049C15.47 16.6741 16.235 16.8158 17 16.8158C17.765 16.8158 18.53 16.6741 19.1391 16.4049L27.4408 12.7074C29.5375 11.7724 29.8491 10.4974 29.8491 9.81742C29.8491 9.13742 29.5516 7.86242 27.4408 6.92742Z" fill="url(#paint0_linear_152_512)"/>
<path d="M17 24.1399C16.4616 24.1399 15.9233 24.0266 15.4275 23.8141L5.87912 19.5641C4.41995 18.9124 3.28662 17.1699 3.28662 15.5691C3.28662 14.9883 3.75412 14.5208 4.33495 14.5208C4.91579 14.5208 5.38329 14.9883 5.38329 15.5691C5.38329 16.3341 6.02079 17.3258 6.72912 17.6374L16.2775 21.8874C16.7308 22.0858 17.255 22.0858 17.7083 21.8874L27.2566 17.6374C27.965 17.3258 28.6025 16.3483 28.6025 15.5691C28.6025 14.9883 29.07 14.5208 29.6508 14.5208C30.2316 14.5208 30.6991 14.9883 30.6991 15.5691C30.6991 17.1558 29.5658 18.9124 28.1066 19.5641L18.5583 23.8141C18.0766 24.0266 17.5383 24.1399 17 24.1399Z" fill="url(#paint1_linear_152_512)"/>
<path d="M17 31.1666C16.4616 31.1666 15.9233 31.0533 15.4275 30.8408L5.87912 26.5908C4.30662 25.8966 3.28662 24.3241 3.28662 22.5958C3.28662 22.0149 3.75412 21.5474 4.33495 21.5474C4.91579 21.5474 5.38329 22.0149 5.38329 22.5958C5.38329 23.4883 5.90745 24.2958 6.72912 24.6641L16.2775 28.9141C16.7308 29.1124 17.255 29.1124 17.7083 28.9141L27.2566 24.6641C28.0641 24.3099 28.6025 23.4883 28.6025 22.5958C28.6025 22.0149 29.07 21.5474 29.6508 21.5474C30.2316 21.5474 30.6991 22.0149 30.6991 22.5958C30.6991 24.3241 29.6791 25.8824 28.1066 26.5908L18.5583 30.8408C18.0766 31.0533 17.5383 31.1666 17 31.1666Z" fill="url(#paint2_linear_152_512)"/>
<defs>
<linearGradient id="paint0_linear_152_512" x1="16.9929" y1="2.92371" x2="16.9929" y2="31.167" gradientUnits="userSpaceOnUse">
<stop stop-color="#F6F6F6"/>
<stop offset="1" stop-color="#535353"/>
</linearGradient>
<linearGradient id="paint1_linear_152_512" x1="16.9929" y1="2.92371" x2="16.9929" y2="31.167" gradientUnits="userSpaceOnUse">
<stop stop-color="#F6F6F6"/>
<stop offset="1" stop-color="#535353"/>
</linearGradient>
<linearGradient id="paint2_linear_152_512" x1="16.9929" y1="2.92371" x2="16.9929" y2="31.167" gradientUnits="userSpaceOnUse">
<stop stop-color="#F6F6F6"/>
<stop offset="1" stop-color="#535353"/>
</linearGradient>
</defs>
</svg>
