<svg width="29" height="29" viewBox="0 0 29 29" fill="none" xmlns="http://www.w3.org/2000/svg">
<g filter="url(#filter0_i_102_438)">
<path d="M24.1197 4.05996C16.3078 -3.31462 3.35291 0.542054 0.856908 10.9853C-1.58042 21.1831 7.72402 30.2604 17.7607 27.8242L11.2393 11.1045L9.18897 20.0601C8.96179 21.0524 7.063 20.6176 7.29017 19.6254L10.0389 7.61969C10.2192 6.83202 11.6971 7.10237 11.955 7.88199L19.2912 27.3627C28.953 23.867 31.7244 11.239 24.1197 4.05996ZM18.9729 20.7188L17.7342 17.3733L19.5578 9.40842C19.7278 8.6657 21.6326 9.1018 21.4626 9.84452L18.9729 20.7188Z" fill="url(#paint0_linear_102_438)"/>
</g>
<defs>
<filter id="filter0_i_102_438" x="0.464111" y="0.244141" width="28.0254" height="28.9805" filterUnits="userSpaceOnUse" color-interpolation-filters="sRGB">
<feFlood flood-opacity="0" result="BackgroundImageFix"/>
<feBlend mode="normal" in="SourceGraphic" in2="BackgroundImageFix" result="shape"/>
<feColorMatrix in="SourceAlpha" type="matrix" values="0 0 0 0 0 0 0 0 0 0 0 0 0 0 0 0 0 0 127 0" result="hardAlpha"/>
<feOffset dy="1"/>
<feGaussianBlur stdDeviation="1"/>
<feComposite in2="hardAlpha" operator="arithmetic" k2="-1" k3="1"/>
<feColorMatrix type="matrix" values="0 0 0 0 0.0509804 0 0 0 0 0.0509804 0 0 0 0 0.0509804 0 0 0 0.4 0"/>
<feBlend mode="normal" in2="shape" result="effect1_innerShadow_102_438"/>
</filter>
<linearGradient id="paint0_linear_102_438" x1="17.6017" y1="0.575604" x2="11.3529" y2="27.8694" gradientUnits="userSpaceOnUse">
<stop stop-color="#F6F6F6"/>
<stop offset="1" stop-color="#909090"/>
</linearGradient>
</defs>
</svg>
