<svg width="28" height="28" viewBox="0 0 28 28" fill="none" xmlns="http://www.w3.org/2000/svg">
<g filter="url(#filter0_i_232_488)">
<path d="M11.1528 2.48886C4.38813 0.360178 0.519325 2.29749 0.794118 7.99803C0.823568 8.54596 1.02003 9.68247 1.35977 11.0933C1.69951 12.5039 2.1774 14.1602 2.76509 15.6476C3.35275 17.1348 4.03123 18.4462 4.87748 19.2115C5.30059 19.594 5.80241 19.8522 6.3535 19.8305C6.90459 19.8087 7.42881 19.5088 7.90023 18.9815C9.02487 17.7228 9.947 16.8149 10.1275 16.6381C10.6135 16.8814 11.088 17.0345 11.7608 17.0413C11.1787 17.7445 11.086 17.9739 10.1224 18.1056C9.06084 18.2506 8.05348 18.6145 8.59211 19.4948C8.97898 20.127 11.8676 20.7807 13.5391 19.2999C13.5698 23.7139 13.4174 27.3232 17.6932 26.6751C21.1696 26.1482 20.9633 23.8429 21.5998 18.9992C24.8133 19.6142 28.0625 17.594 26.9647 16.638C26.4031 16.1079 24.4884 17.1992 23.0406 16.5142C25.3306 13.6241 28.1344 6.34349 26.5228 4.01877C24.23 1.36273 20.5101 0.691076 16.6675 1.83446C14.2177 1.31487 12.4804 1.6548 11.1528 2.48886ZM18.0285 2.26754C22.3353 1.42172 26.4716 3.3568 26.2393 6.11453C25.9304 9.78305 24.4772 12.9011 22.5713 15.8066C22.5249 15.7535 22.4781 15.7029 22.4299 15.6475C23.5768 13.6757 22.8855 12.3772 22.8542 10.7042C22.8389 9.89006 23.232 8.13925 23.0994 7.78469C22.3971 5.90698 21.4918 3.84114 18.0285 2.26754ZM14.6258 2.34734C18.7453 2.47621 21.042 4.88107 22.2092 7.60013C19.2639 7.34407 18.3974 8.69836 18.9479 10.7483C19.3386 12.0228 19.9416 13.2166 20.6449 14.2944C21.0497 14.8867 20.9384 15.1096 22.0502 16.4256C21.0563 16.6882 20.8453 17.3647 20.8568 18.2206C20.8056 18.8561 20.3681 22.2874 20.1497 23.4646C19.8206 25.3479 18.7894 25.6969 17.5247 25.9407C14.2356 26.4157 14.3625 24.2361 14.3691 17.8938C14.3009 16.9934 13.4663 16.3127 12.6017 16.4789C13.054 14.5703 14.6854 13.2427 13.68 9.30721C13.1356 7.3106 10.9907 7.3792 8.97802 8.36982C9.34865 4.65245 11.0954 2.32024 14.6258 2.34734ZM8.05005 12.6762C7.83707 14.0931 8.43427 15.4073 9.44651 16.2135C8.91623 16.7896 8.04171 17.5713 7.65912 18.0773C6.14839 20.0754 5.17467 19.0358 3.52502 15.3821C1.79182 9.92531 0.487301 6.24044 2.84445 3.62084C4.68205 1.96264 7.4183 2.21422 10.4275 3.04596C9.6729 3.73304 9.16689 4.57995 8.82781 5.41593C7.64567 8.62114 8.4344 10.1994 8.05005 12.6762ZM21.9176 14.9577C21.0875 13.5272 19.9698 11.5794 19.7345 10.5715C19.3217 8.94814 19.7782 8.08842 22.3153 8.36955C22.3002 9.11077 22.083 9.71991 22.0502 10.6776C22.0445 12.0767 22.6075 13.837 21.9176 14.9577ZM11.8065 16.2841C10.0516 16.2815 8.55793 14.6965 8.84557 12.7822C9.02079 11.6734 9.01333 10.5036 8.92512 9.30684C10.217 8.43721 12.6026 7.84369 12.8936 9.46616C13.8277 13.4305 12.4866 13.8563 11.8065 16.2841ZM21.564 8.88253C21.5151 8.50595 20.154 8.68282 20.2028 9.05939C20.3185 9.45867 21.1438 9.72532 21.549 8.98396C21.5631 8.95805 21.5667 8.90977 21.564 8.88253ZM12.425 9.49285C12.9573 8.91138 11.1164 8.60495 11.0197 9.13028C10.9617 9.43394 11.7612 10.1662 12.425 9.49285ZM26.1244 17.2924C24.6794 18.5271 22.3453 18.5142 21.67 18.2031C21.6769 17.6454 21.6554 17.2325 22.5184 17.089C23.1748 17.5533 24.3312 17.6432 26.1244 17.2924ZM9.34041 19.0964C9.63665 18.9077 10.6361 18.8174 11.2551 18.5464C11.7515 18.3291 12.0481 17.8755 12.5188 17.3787C12.9637 16.8304 13.8184 17.6162 13.4768 18.2297C12.2803 19.8302 10.1396 19.527 9.34041 19.0964ZM0.593039 11.2789C-1.83432 2.25118 3.4929 -0.560779 11.0509 1.70752C12.5563 0.879175 14.4455 0.656467 16.7318 1.06058C20.7716 -0.0500319 24.9378 0.725145 27.3156 3.79881C28.6183 5.94591 27.3338 11.3323 24.3711 16.0114C26.3951 15.9205 26.4789 15.3967 27.473 16.0646C29.4178 17.8854 25.6009 20.1837 22.1998 19.8755C22.1764 19.9883 22.1569 20.1149 22.1378 20.2566C22.0619 22.8853 21.6714 24.5052 20.8173 25.6361C19.9539 26.7791 18.6573 27.143 17.6356 27.3466C13.4798 27.9544 12.9052 24.6984 12.8853 20.5933C11.0797 21.3702 8.67556 20.8351 7.99325 19.9907C6.54795 21.0435 5.25509 20.5754 4.33304 19.778C2.63426 18.1624 1.64146 15.2634 0.593039 11.2789Z" fill="url(#paint0_linear_232_488)"/>
</g>
<defs>
<filter id="filter0_i_232_488" x="0" y="0.580078" width="28" height="27.8398" filterUnits="userSpaceOnUse" color-interpolation-filters="sRGB">
<feFlood flood-opacity="0" result="BackgroundImageFix"/>
<feBlend mode="normal" in="SourceGraphic" in2="BackgroundImageFix" result="shape"/>
<feColorMatrix in="SourceAlpha" type="matrix" values="0 0 0 0 0 0 0 0 0 0 0 0 0 0 0 0 0 0 127 0" result="hardAlpha"/>
<feOffset dy="1"/>
<feGaussianBlur stdDeviation="1"/>
<feComposite in2="hardAlpha" operator="arithmetic" k2="-1" k3="1"/>
<feColorMatrix type="matrix" values="0 0 0 0 0.0509804 0 0 0 0 0.0509804 0 0 0 0 0.0509804 0 0 0 0.4 0"/>
<feBlend mode="normal" in2="shape" result="effect1_innerShadow_232_488"/>
</filter>
<linearGradient id="paint0_linear_232_488" x1="14" y1="0.580078" x2="14" y2="27.4198" gradientUnits="userSpaceOnUse">
<stop stop-color="#F6F6F6"/>
<stop offset="1" stop-color="#909090"/>
</linearGradient>
</defs>
</svg>
