<svg width="29" height="26" viewBox="0 0 29 26" fill="none" xmlns="http://www.w3.org/2000/svg">
<g filter="url(#filter0_i_102_442)">
<path d="M17.0457 12.814C16.9055 10.9027 14.7479 9.85343 13.1712 10.9298C11.5945 12.0063 11.7707 14.4084 13.4875 15.2433C15.2043 16.0782 17.1858 14.7254 17.0457 12.814ZM22.3819 7.80734C23.4468 -0.149915 19.6594 -2.34474 13.9435 3.77773C7.77556 -1.20957 3.7908 0.79692 6.14799 8.96478C-1.73826 11.9873 -0.868346 16.5247 6.89885 18.3054C5.72119 26.0731 9.17187 28.6223 15.3069 22.3702C22.0867 27.6093 25.2669 24.6904 22.964 17.0944C31.0432 13.6777 30.0018 9.66618 22.3819 7.80734ZM21.2454 7.59397C19.9241 7.3961 18.6508 7.27491 17.3631 7.25227C16.6169 6.31626 15.7598 5.38948 14.7906 4.5398C19.361 -0.536343 22.3665 0.724645 21.2454 7.59397ZM9.02416 14.9187C9.5867 15.9215 10.2959 16.8255 10.8353 17.5881C10.0463 17.5655 9.19368 17.5057 8.28394 17.4126C8.51264 16.586 8.75971 15.7546 9.02416 14.9187ZM8.75179 12.1035C8.33105 11.271 7.9438 10.4661 7.62051 9.71395C8.53354 9.45378 9.42926 9.21268 10.2125 9.0953C9.69385 10.0592 9.20767 11.0628 8.75179 12.1035ZM9.54619 13.4958C10.2303 11.8311 10.9667 10.2446 11.8073 8.81353C13.4688 8.59521 15.1204 8.48266 16.7611 8.48324C17.7699 9.69144 18.7359 11.1531 19.6786 12.7528C19.1573 14.0675 18.3922 15.5945 17.5015 17.2312C15.8322 17.4814 14.1096 17.59 12.3533 17.6087C11.3676 16.3161 10.4306 14.9473 9.54619 13.4958ZM20.4026 14.0844C20.7777 14.8337 21.1297 15.5996 21.4611 16.3804C20.6325 16.6193 19.8117 16.8093 18.9978 16.9566C19.4955 16.0456 19.9604 15.0828 20.4026 14.0844ZM18.3775 8.49658C19.2805 8.55341 20.1554 8.64292 21.0016 8.7657C20.7837 9.61395 20.5265 10.4462 20.2286 11.262C19.6476 10.2981 19.0321 9.37462 18.3775 8.49658ZM15.7468 7.23893C14.7226 7.27375 13.6837 7.35122 12.6316 7.46736C13.0489 6.82609 13.5172 6.15385 14.0333 5.45247C14.6271 6.00602 15.1952 6.60704 15.7468 7.23893ZM13.1838 4.65762C12.3489 5.63959 11.6338 6.64871 11.0321 7.68355C9.7615 7.89378 8.48671 8.20182 7.20844 8.59031C5.16473 1.85002 7.92183 0.302476 13.1838 4.65762ZM7.11462 17.2016C0.1325 15.6477 0.225569 12.4211 6.52486 10.058C7.00631 11.2242 7.57207 12.4029 8.19696 13.5288C7.76118 14.7726 7.38793 16.0446 7.11462 17.2016ZM8.06817 18.5163C9.24763 18.7156 10.4854 18.762 11.7816 18.8045C12.6356 19.8399 13.5115 20.7965 14.427 21.6105C9.77275 26.776 6.85419 25.2373 8.06817 18.5163ZM15.1538 20.733C14.5156 20.1622 13.9107 19.5068 13.33 18.7898C14.5027 18.7286 15.6337 18.6485 16.7075 18.5422C16.2407 19.3195 15.7221 20.0492 15.1538 20.733ZM16.0337 21.4927C16.8743 20.4333 17.6058 19.3682 18.239 18.298C19.4408 18.1205 20.6514 17.8451 21.8707 17.4712C24.0986 24.3669 21.0643 25.6318 16.0337 21.4927ZM22.5871 16.0011C22.1529 14.896 21.6234 13.7561 21.0182 12.5887C21.4646 11.3842 21.8351 10.1698 22.1357 8.94627C28.5601 10.3873 29.2857 13.389 22.5871 16.0011Z" fill="url(#paint0_linear_102_442)"/>
</g>
<defs>
<filter id="filter0_i_102_442" x="0.637695" y="0.257812" width="27.938" height="26.624" filterUnits="userSpaceOnUse" color-interpolation-filters="sRGB">
<feFlood flood-opacity="0" result="BackgroundImageFix"/>
<feBlend mode="normal" in="SourceGraphic" in2="BackgroundImageFix" result="shape"/>
<feColorMatrix in="SourceAlpha" type="matrix" values="0 0 0 0 0 0 0 0 0 0 0 0 0 0 0 0 0 0 127 0" result="hardAlpha"/>
<feOffset dy="1"/>
<feGaussianBlur stdDeviation="1"/>
<feComposite in2="hardAlpha" operator="arithmetic" k2="-1" k3="1"/>
<feColorMatrix type="matrix" values="0 0 0 0 0.0509804 0 0 0 0 0.0509804 0 0 0 0 0.0509804 0 0 0 0.4 0"/>
<feBlend mode="normal" in2="shape" result="effect1_innerShadow_102_442"/>
</filter>
<linearGradient id="paint0_linear_102_442" x1="13.7035" y1="0.663649" x2="15.521" y2="25.4501" gradientUnits="userSpaceOnUse">
<stop stop-color="#F6F6F6"/>
<stop offset="1" stop-color="#909090"/>
</linearGradient>
</defs>
</svg>
