<svg width="24" height="24" viewBox="0 0 24 24" fill="none" xmlns="http://www.w3.org/2000/svg">
<g filter="url(#filter0_i_232_476)">
<path fill-rule="evenodd" clip-rule="evenodd" d="M0.576172 0.576172V23.4242H23.4242V0.576172H0.576172ZM17.9373 11.6737V11.674C18.1564 11.6747 18.4054 11.686 18.5927 11.7063C19.3553 11.7888 19.9493 12.1178 20.4545 12.7376C20.7062 13.0463 20.7923 13.1814 20.7739 13.2392C20.7621 13.2765 20.5895 13.4001 20.0405 13.7645C19.5013 14.1225 19.3276 14.2297 19.2873 14.2297C19.2464 14.2297 19.1612 14.142 19.0384 13.9736C18.8018 13.6494 18.5603 13.5015 18.1869 13.4521C17.7853 13.3989 17.4252 13.5255 17.2488 13.7819C17.098 14.0009 17.0752 14.3534 17.1951 14.6095C17.3339 14.9062 17.5852 15.0702 18.5484 15.4925C19.6592 15.9796 20.2221 16.313 20.6321 16.7267C21.0736 17.1723 21.2972 17.6867 21.3659 18.4144C21.3995 18.769 21.3585 19.1894 21.257 19.5312C21.0081 20.369 20.3364 20.9825 19.3519 21.2712C19.0797 21.351 18.8265 21.3987 18.576 21.417C18.1936 21.4452 17.6462 21.4297 17.3168 21.3817C16.4833 21.2603 15.5424 20.7753 15.0732 20.2253C14.8429 19.9553 14.5489 19.5111 14.5489 19.4329C14.5489 19.3952 14.5675 19.3738 14.6416 19.3267C14.8612 19.1872 16.1197 18.4678 16.1441 18.4678C16.1588 18.4678 16.2246 18.5452 16.2901 18.6399C16.4386 18.8543 16.8036 19.2227 16.9892 19.3456C17.1408 19.446 17.3347 19.5267 17.5648 19.5848C17.6966 19.6177 17.7664 19.6235 18.0541 19.6235C18.3479 19.6234 18.4082 19.6185 18.5397 19.5832C18.8874 19.4896 19.1589 19.2959 19.2739 19.0594C19.3243 18.9572 19.3253 18.9444 19.3253 18.6965V18.4395L19.2635 18.3168C19.1138 18.0197 18.7912 17.8158 17.7714 17.374C17.3029 17.1711 16.7292 16.885 16.5052 16.7426C15.994 16.4178 15.6397 16.0464 15.4072 15.5918C15.1759 15.1397 15.1414 14.9714 15.1409 14.2916C15.1403 13.7595 15.1394 13.766 15.2496 13.4264C15.3495 13.1182 15.5542 12.7739 15.78 12.5338C16.2309 12.0545 16.8896 11.7465 17.5948 11.6853C17.685 11.6767 17.8058 11.6734 17.9372 11.6738L17.9373 11.6737ZM11.8691 11.7788H11.8694C13.2275 11.7795 14.0061 11.7842 14.0186 11.792C14.0421 11.8066 14.045 11.9248 14.045 12.6792V13.5495L12.6898 13.5544L11.3345 13.5593V17.4073C11.3345 19.5237 11.3302 21.2678 11.3244 21.2832C11.3148 21.3091 11.2105 21.3111 10.3287 21.3111H9.34381L9.33364 21.2713C9.32706 21.2494 9.32226 19.5053 9.32215 17.3953L9.32182 13.5591L7.96657 13.5543L6.61131 13.5494V12.6894C6.61131 12.0073 6.61602 11.8246 6.63417 11.8065C6.65282 11.7873 7.34447 11.7823 10.3247 11.7794C10.8993 11.7788 11.4164 11.7785 11.8691 11.7788Z" fill="url(#paint0_linear_232_476)"/>
</g>
<defs>
<filter id="filter0_i_232_476" x="0.576172" y="0.576172" width="22.8477" height="23.8477" filterUnits="userSpaceOnUse" color-interpolation-filters="sRGB">
<feFlood flood-opacity="0" result="BackgroundImageFix"/>
<feBlend mode="normal" in="SourceGraphic" in2="BackgroundImageFix" result="shape"/>
<feColorMatrix in="SourceAlpha" type="matrix" values="0 0 0 0 0 0 0 0 0 0 0 0 0 0 0 0 0 0 127 0" result="hardAlpha"/>
<feOffset dy="1"/>
<feGaussianBlur stdDeviation="1"/>
<feComposite in2="hardAlpha" operator="arithmetic" k2="-1" k3="1"/>
<feColorMatrix type="matrix" values="0 0 0 0 0.0509804 0 0 0 0 0.0509804 0 0 0 0 0.0509804 0 0 0 0.4 0"/>
<feBlend mode="normal" in2="shape" result="effect1_innerShadow_232_476"/>
</filter>
<linearGradient id="paint0_linear_232_476" x1="12.0002" y1="0.576172" x2="12.0002" y2="23.4242" gradientUnits="userSpaceOnUse">
<stop stop-color="#F6F6F6"/>
<stop offset="1" stop-color="#909090"/>
</linearGradient>
</defs>
</svg>
